<svg width="48" height="48" viewBox="0 0 48 48" fill="none" xmlns="http://www.w3.org/2000/svg">
<circle cx="24" cy="24" r="20" fill="#181717"/>
<path d="M6.81396 34.235C9.2486 38.3138 13.0944 41.4526 17.6777 42.9784C18.6784 43.1614 19.043 42.5438 19.043 42.0134C19.043 41.7938 19.0393 41.4058 19.0344 40.8866C19.0287 40.2852 19.0213 39.5079 19.016 38.6124C13.4529 39.8206 12.2791 35.931 12.2791 35.931C11.3694 33.6215 10.0581 33.0064 10.0581 33.0064C8.24219 31.7651 10.1956 31.7896 10.1956 31.7896C12.203 31.9321 13.2589 33.8511 13.2589 33.8511C15.0429 36.9071 17.9405 36.0243 19.0798 35.5135C19.2616 34.2207 19.7772 33.3391 20.3494 32.8394C15.9085 32.3348 11.2392 30.6183 11.2392 22.9545C11.2392 20.7715 12.0189 18.9863 13.2982 17.5879C13.0919 17.082 12.4056 15.0488 13.4934 12.2949C13.4934 12.2949 15.173 11.7571 18.9939 14.3453C20.5888 13.9021 22.3003 13.6798 24.0008 13.6725C25.6988 13.6798 27.4104 13.9021 29.0077 14.3453C32.8261 11.7571 34.502 12.2949 34.502 12.2949C35.5935 15.0488 34.9072 17.082 34.7009 17.5879C35.9828 18.9863 36.7575 20.7715 36.7575 22.9545C36.7575 30.638 32.0809 32.3286 27.6252 32.8234C28.3435 33.441 28.9832 34.6614 28.9832 36.5277C28.9832 38.3152 28.9722 39.8722 28.9649 40.9035C28.9613 41.4143 28.9586 41.7962 28.9586 42.0134C28.9586 42.5487 29.3183 43.1712 30.3337 42.976C33.9849 41.7572 37.1675 39.5154 39.5407 36.5903C35.8739 41.1108 30.2744 44 24.0002 44C16.6948 44 10.3043 40.0832 6.81396 34.235Z" fill="white"/>
</svg>
